<mxfile host="app.diagrams.net" agent="Mozilla/5.0 (Macintosh; Intel Mac OS X 10.15; rv:144.0) Gecko/20100101 Firefox/144.0" version="28.2.8">
  <diagram name="Page-1" id="AvaMco-YdOsuPRPhcN-Y">
    <mxGraphModel dx="1066" dy="621" grid="1" gridSize="10" guides="1" tooltips="1" connect="1" arrows="1" fold="1" page="1" pageScale="1" pageWidth="850" pageHeight="1100" math="0" shadow="0">
      <root>
        <mxCell id="0" />
        <mxCell id="1" parent="0" />
        <mxCell id="0UQjAZHjR5uYfEtRIdzx-64" value="L Name" style="rounded=0;whiteSpace=wrap;html=1;" parent="1" vertex="1">
          <mxGeometry x="80" y="20" width="80" height="20" as="geometry" />
        </mxCell>
        <mxCell id="0UQjAZHjR5uYfEtRIdzx-65" value="St ID" style="rounded=0;whiteSpace=wrap;html=1;" parent="1" vertex="1">
          <mxGeometry y="20" width="80" height="20" as="geometry" />
        </mxCell>
        <mxCell id="0UQjAZHjR5uYfEtRIdzx-66" value="Phone No" style="rounded=0;whiteSpace=wrap;html=1;" parent="1" vertex="1">
          <mxGeometry x="240" y="20" width="80" height="20" as="geometry" />
        </mxCell>
        <mxCell id="0UQjAZHjR5uYfEtRIdzx-67" value="F Name" style="rounded=0;whiteSpace=wrap;html=1;" parent="1" vertex="1">
          <mxGeometry x="160" y="20" width="80" height="20" as="geometry" />
        </mxCell>
        <mxCell id="0UQjAZHjR5uYfEtRIdzx-68" value="Lic No" style="rounded=0;whiteSpace=wrap;html=1;" parent="1" vertex="1">
          <mxGeometry x="400" y="20" width="80" height="20" as="geometry" />
        </mxCell>
        <mxCell id="0UQjAZHjR5uYfEtRIdzx-69" value="St Lic" style="rounded=0;whiteSpace=wrap;html=1;" parent="1" vertex="1">
          <mxGeometry x="320" y="20" width="80" height="20" as="geometry" />
        </mxCell>
        <mxCell id="0UQjAZHjR5uYfEtRIdzx-70" value="Date" style="rounded=0;whiteSpace=wrap;html=1;" parent="1" vertex="1">
          <mxGeometry x="560" y="20" width="80" height="20" as="geometry" />
        </mxCell>
        <mxCell id="0UQjAZHjR5uYfEtRIdzx-71" value="Ticket #" style="rounded=0;whiteSpace=wrap;html=1;" parent="1" vertex="1">
          <mxGeometry x="480" y="20" width="80" height="20" as="geometry" />
        </mxCell>
        <mxCell id="0UQjAZHjR5uYfEtRIdzx-72" value="Fine" style="rounded=0;whiteSpace=wrap;html=1;" parent="1" vertex="1">
          <mxGeometry x="720" y="20" width="80" height="20" as="geometry" />
        </mxCell>
        <mxCell id="0UQjAZHjR5uYfEtRIdzx-73" value="Code" style="rounded=0;whiteSpace=wrap;html=1;" parent="1" vertex="1">
          <mxGeometry x="640" y="20" width="80" height="20" as="geometry" />
        </mxCell>
        <mxCell id="0UQjAZHjR5uYfEtRIdzx-74" value="Brown" style="rounded=0;whiteSpace=wrap;html=1;" parent="1" vertex="1">
          <mxGeometry x="80" y="40" width="80" height="20" as="geometry" />
        </mxCell>
        <mxCell id="0UQjAZHjR5uYfEtRIdzx-75" value="38249" style="rounded=0;whiteSpace=wrap;html=1;" parent="1" vertex="1">
          <mxGeometry y="40" width="80" height="20" as="geometry" />
        </mxCell>
        <mxCell id="0UQjAZHjR5uYfEtRIdzx-76" value="&lt;div&gt;111-7804&lt;/div&gt;" style="rounded=0;whiteSpace=wrap;html=1;" parent="1" vertex="1">
          <mxGeometry x="240" y="40" width="80" height="20" as="geometry" />
        </mxCell>
        <mxCell id="0UQjAZHjR5uYfEtRIdzx-77" value="Thomas" style="rounded=0;whiteSpace=wrap;html=1;" parent="1" vertex="1">
          <mxGeometry x="160" y="40" width="80" height="20" as="geometry" />
        </mxCell>
        <mxCell id="0UQjAZHjR5uYfEtRIdzx-78" value="BRY 123" style="rounded=0;whiteSpace=wrap;html=1;" parent="1" vertex="1">
          <mxGeometry x="400" y="40" width="80" height="20" as="geometry" />
        </mxCell>
        <mxCell id="0UQjAZHjR5uYfEtRIdzx-79" value="FL" style="rounded=0;whiteSpace=wrap;html=1;" parent="1" vertex="1">
          <mxGeometry x="320" y="40" width="80" height="20" as="geometry" />
        </mxCell>
        <mxCell id="0UQjAZHjR5uYfEtRIdzx-80" value="10/17/2018" style="rounded=0;whiteSpace=wrap;html=1;" parent="1" vertex="1">
          <mxGeometry x="560" y="40" width="80" height="20" as="geometry" />
        </mxCell>
        <mxCell id="0UQjAZHjR5uYfEtRIdzx-81" value="15634" style="rounded=0;whiteSpace=wrap;html=1;" parent="1" vertex="1">
          <mxGeometry x="480" y="40" width="80" height="20" as="geometry" />
        </mxCell>
        <mxCell id="0UQjAZHjR5uYfEtRIdzx-82" value="$25" style="rounded=0;whiteSpace=wrap;html=1;" parent="1" vertex="1">
          <mxGeometry x="720" y="40" width="80" height="20" as="geometry" />
        </mxCell>
        <mxCell id="0UQjAZHjR5uYfEtRIdzx-83" value="2" style="rounded=0;whiteSpace=wrap;html=1;" parent="1" vertex="1">
          <mxGeometry x="640" y="40" width="80" height="20" as="geometry" />
        </mxCell>
        <mxCell id="0UQjAZHjR5uYfEtRIdzx-84" value="Brown" style="rounded=0;whiteSpace=wrap;html=1;" parent="1" vertex="1">
          <mxGeometry x="80" y="60" width="80" height="20" as="geometry" />
        </mxCell>
        <mxCell id="0UQjAZHjR5uYfEtRIdzx-85" value="" style="rounded=0;whiteSpace=wrap;html=1;" parent="1" vertex="1">
          <mxGeometry y="60" width="80" height="20" as="geometry" />
        </mxCell>
        <mxCell id="0UQjAZHjR5uYfEtRIdzx-86" value="&lt;div&gt;111-7804&lt;/div&gt;" style="rounded=0;whiteSpace=wrap;html=1;" parent="1" vertex="1">
          <mxGeometry x="240" y="60" width="80" height="20" as="geometry" />
        </mxCell>
        <mxCell id="0UQjAZHjR5uYfEtRIdzx-87" value="Thomas" style="rounded=0;whiteSpace=wrap;html=1;" parent="1" vertex="1">
          <mxGeometry x="160" y="60" width="80" height="20" as="geometry" />
        </mxCell>
        <mxCell id="0UQjAZHjR5uYfEtRIdzx-88" value="BRY 123" style="rounded=0;whiteSpace=wrap;html=1;" parent="1" vertex="1">
          <mxGeometry x="400" y="60" width="80" height="20" as="geometry" />
        </mxCell>
        <mxCell id="0UQjAZHjR5uYfEtRIdzx-89" value="FL" style="rounded=0;whiteSpace=wrap;html=1;" parent="1" vertex="1">
          <mxGeometry x="320" y="60" width="80" height="20" as="geometry" />
        </mxCell>
        <mxCell id="0UQjAZHjR5uYfEtRIdzx-90" value="11/13/2018" style="rounded=0;whiteSpace=wrap;html=1;" parent="1" vertex="1">
          <mxGeometry x="560" y="60" width="80" height="20" as="geometry" />
        </mxCell>
        <mxCell id="0UQjAZHjR5uYfEtRIdzx-91" value="16017" style="rounded=0;whiteSpace=wrap;html=1;" parent="1" vertex="1">
          <mxGeometry x="480" y="60" width="80" height="20" as="geometry" />
        </mxCell>
        <mxCell id="0UQjAZHjR5uYfEtRIdzx-92" value="$15" style="rounded=0;whiteSpace=wrap;html=1;" parent="1" vertex="1">
          <mxGeometry x="720" y="60" width="80" height="20" as="geometry" />
        </mxCell>
        <mxCell id="0UQjAZHjR5uYfEtRIdzx-93" value="1" style="rounded=0;whiteSpace=wrap;html=1;" parent="1" vertex="1">
          <mxGeometry x="640" y="60" width="80" height="20" as="geometry" />
        </mxCell>
        <mxCell id="0UQjAZHjR5uYfEtRIdzx-94" value="Green" style="rounded=0;whiteSpace=wrap;html=1;" parent="1" vertex="1">
          <mxGeometry x="80" y="80" width="80" height="20" as="geometry" />
        </mxCell>
        <mxCell id="0UQjAZHjR5uYfEtRIdzx-95" value="82453" style="rounded=0;whiteSpace=wrap;html=1;" parent="1" vertex="1">
          <mxGeometry y="80" width="80" height="20" as="geometry" />
        </mxCell>
        <mxCell id="0UQjAZHjR5uYfEtRIdzx-96" value="391-1689" style="rounded=0;whiteSpace=wrap;html=1;" parent="1" vertex="1">
          <mxGeometry x="240" y="80" width="80" height="20" as="geometry" />
        </mxCell>
        <mxCell id="0UQjAZHjR5uYfEtRIdzx-97" value="Sally" style="rounded=0;whiteSpace=wrap;html=1;" parent="1" vertex="1">
          <mxGeometry x="160" y="80" width="80" height="20" as="geometry" />
        </mxCell>
        <mxCell id="0UQjAZHjR5uYfEtRIdzx-98" value="TRE 141" style="rounded=0;whiteSpace=wrap;html=1;" parent="1" vertex="1">
          <mxGeometry x="400" y="80" width="80" height="20" as="geometry" />
        </mxCell>
        <mxCell id="0UQjAZHjR5uYfEtRIdzx-99" value="AL" style="rounded=0;whiteSpace=wrap;html=1;" parent="1" vertex="1">
          <mxGeometry x="320" y="80" width="80" height="20" as="geometry" />
        </mxCell>
        <mxCell id="0UQjAZHjR5uYfEtRIdzx-100" value="10/05/2018" style="rounded=0;whiteSpace=wrap;html=1;" parent="1" vertex="1">
          <mxGeometry x="560" y="80" width="80" height="20" as="geometry" />
        </mxCell>
        <mxCell id="0UQjAZHjR5uYfEtRIdzx-101" value="14987" style="rounded=0;whiteSpace=wrap;html=1;" parent="1" vertex="1">
          <mxGeometry x="480" y="80" width="80" height="20" as="geometry" />
        </mxCell>
        <mxCell id="0UQjAZHjR5uYfEtRIdzx-102" value="$100" style="rounded=0;whiteSpace=wrap;html=1;" parent="1" vertex="1">
          <mxGeometry x="720" y="80" width="80" height="20" as="geometry" />
        </mxCell>
        <mxCell id="0UQjAZHjR5uYfEtRIdzx-103" value="3" style="rounded=0;whiteSpace=wrap;html=1;" parent="1" vertex="1">
          <mxGeometry x="640" y="80" width="80" height="20" as="geometry" />
        </mxCell>
        <mxCell id="0UQjAZHjR5uYfEtRIdzx-104" value="Green" style="rounded=0;whiteSpace=wrap;html=1;" parent="1" vertex="1">
          <mxGeometry x="80" y="100" width="80" height="20" as="geometry" />
        </mxCell>
        <mxCell id="0UQjAZHjR5uYfEtRIdzx-105" value="82453" style="rounded=0;whiteSpace=wrap;html=1;" parent="1" vertex="1">
          <mxGeometry y="100" width="80" height="20" as="geometry" />
        </mxCell>
        <mxCell id="0UQjAZHjR5uYfEtRIdzx-106" value="391-1689" style="rounded=0;whiteSpace=wrap;html=1;" parent="1" vertex="1">
          <mxGeometry x="240" y="100" width="80" height="20" as="geometry" />
        </mxCell>
        <mxCell id="0UQjAZHjR5uYfEtRIdzx-107" value="Sally" style="rounded=0;whiteSpace=wrap;html=1;" parent="1" vertex="1">
          <mxGeometry x="160" y="100" width="80" height="20" as="geometry" />
        </mxCell>
        <mxCell id="0UQjAZHjR5uYfEtRIdzx-108" value="TRE 141" style="rounded=0;whiteSpace=wrap;html=1;" parent="1" vertex="1">
          <mxGeometry x="400" y="100" width="80" height="20" as="geometry" />
        </mxCell>
        <mxCell id="0UQjAZHjR5uYfEtRIdzx-109" value="AL" style="rounded=0;whiteSpace=wrap;html=1;" parent="1" vertex="1">
          <mxGeometry x="320" y="100" width="80" height="20" as="geometry" />
        </mxCell>
        <mxCell id="0UQjAZHjR5uYfEtRIdzx-110" value="11/18/2018" style="rounded=0;whiteSpace=wrap;html=1;" parent="1" vertex="1">
          <mxGeometry x="560" y="100" width="80" height="20" as="geometry" />
        </mxCell>
        <mxCell id="0UQjAZHjR5uYfEtRIdzx-111" value="16293" style="rounded=0;whiteSpace=wrap;html=1;" parent="1" vertex="1">
          <mxGeometry x="480" y="100" width="80" height="20" as="geometry" />
        </mxCell>
        <mxCell id="0UQjAZHjR5uYfEtRIdzx-112" value="$15" style="rounded=0;whiteSpace=wrap;html=1;" parent="1" vertex="1">
          <mxGeometry x="720" y="100" width="80" height="20" as="geometry" />
        </mxCell>
        <mxCell id="0UQjAZHjR5uYfEtRIdzx-113" value="1" style="rounded=0;whiteSpace=wrap;html=1;" parent="1" vertex="1">
          <mxGeometry x="640" y="100" width="80" height="20" as="geometry" />
        </mxCell>
        <mxCell id="0UQjAZHjR5uYfEtRIdzx-114" value="Green" style="rounded=0;whiteSpace=wrap;html=1;" parent="1" vertex="1">
          <mxGeometry x="80" y="120" width="80" height="20" as="geometry" />
        </mxCell>
        <mxCell id="0UQjAZHjR5uYfEtRIdzx-115" value="82453" style="rounded=0;whiteSpace=wrap;html=1;" parent="1" vertex="1">
          <mxGeometry y="120" width="80" height="20" as="geometry" />
        </mxCell>
        <mxCell id="0UQjAZHjR5uYfEtRIdzx-116" value="391-1689" style="rounded=0;whiteSpace=wrap;html=1;" parent="1" vertex="1">
          <mxGeometry x="240" y="120" width="80" height="20" as="geometry" />
        </mxCell>
        <mxCell id="0UQjAZHjR5uYfEtRIdzx-117" value="Sally" style="rounded=0;whiteSpace=wrap;html=1;" parent="1" vertex="1">
          <mxGeometry x="160" y="120" width="80" height="20" as="geometry" />
        </mxCell>
        <mxCell id="0UQjAZHjR5uYfEtRIdzx-118" value="TRE 141" style="rounded=0;whiteSpace=wrap;html=1;" parent="1" vertex="1">
          <mxGeometry x="400" y="120" width="80" height="20" as="geometry" />
        </mxCell>
        <mxCell id="0UQjAZHjR5uYfEtRIdzx-119" value="AL" style="rounded=0;whiteSpace=wrap;html=1;" parent="1" vertex="1">
          <mxGeometry x="320" y="120" width="80" height="20" as="geometry" />
        </mxCell>
        <mxCell id="0UQjAZHjR5uYfEtRIdzx-120" value="12/13/2018" style="rounded=0;whiteSpace=wrap;html=1;" parent="1" vertex="1">
          <mxGeometry x="560" y="120" width="80" height="20" as="geometry" />
        </mxCell>
        <mxCell id="0UQjAZHjR5uYfEtRIdzx-121" value="17892" style="rounded=0;whiteSpace=wrap;html=1;" parent="1" vertex="1">
          <mxGeometry x="480" y="120" width="80" height="20" as="geometry" />
        </mxCell>
        <mxCell id="0UQjAZHjR5uYfEtRIdzx-122" value="$25" style="rounded=0;whiteSpace=wrap;html=1;" parent="1" vertex="1">
          <mxGeometry x="720" y="120" width="80" height="20" as="geometry" />
        </mxCell>
        <mxCell id="0UQjAZHjR5uYfEtRIdzx-123" value="2" style="rounded=0;whiteSpace=wrap;html=1;" parent="1" vertex="1">
          <mxGeometry x="640" y="120" width="80" height="20" as="geometry" />
        </mxCell>
        <mxCell id="r2siFuNWQ3NmHAQ4Ji6S-1" value="PARKING TICKET TABLE" style="rounded=0;whiteSpace=wrap;html=1;" parent="1" vertex="1">
          <mxGeometry width="800" height="20" as="geometry" />
        </mxCell>
        <mxCell id="r2siFuNWQ3NmHAQ4Ji6S-2" value="38249" style="rounded=0;whiteSpace=wrap;html=1;" parent="1" vertex="1">
          <mxGeometry y="60" width="80" height="20" as="geometry" />
        </mxCell>
        <mxCell id="r2siFuNWQ3NmHAQ4Ji6S-4" value="L Name" style="rounded=0;whiteSpace=wrap;html=1;" parent="1" vertex="1">
          <mxGeometry x="80" y="200.08000000000004" width="80" height="20" as="geometry" />
        </mxCell>
        <mxCell id="r2siFuNWQ3NmHAQ4Ji6S-24" style="edgeStyle=orthogonalEdgeStyle;rounded=0;orthogonalLoop=1;jettySize=auto;html=1;entryX=0.5;entryY=0;entryDx=0;entryDy=0;" parent="1" source="r2siFuNWQ3NmHAQ4Ji6S-5" target="r2siFuNWQ3NmHAQ4Ji6S-4" edge="1">
          <mxGeometry relative="1" as="geometry" />
        </mxCell>
        <mxCell id="r2siFuNWQ3NmHAQ4Ji6S-25" style="edgeStyle=orthogonalEdgeStyle;rounded=0;orthogonalLoop=1;jettySize=auto;html=1;entryX=0.5;entryY=0;entryDx=0;entryDy=0;exitX=0.5;exitY=0;exitDx=0;exitDy=0;" parent="1" source="r2siFuNWQ3NmHAQ4Ji6S-5" target="r2siFuNWQ3NmHAQ4Ji6S-7" edge="1">
          <mxGeometry relative="1" as="geometry" />
        </mxCell>
        <mxCell id="r2siFuNWQ3NmHAQ4Ji6S-26" style="edgeStyle=orthogonalEdgeStyle;rounded=0;orthogonalLoop=1;jettySize=auto;html=1;entryX=0.5;entryY=0;entryDx=0;entryDy=0;exitX=0.5;exitY=0;exitDx=0;exitDy=0;" parent="1" source="r2siFuNWQ3NmHAQ4Ji6S-5" target="r2siFuNWQ3NmHAQ4Ji6S-6" edge="1">
          <mxGeometry relative="1" as="geometry" />
        </mxCell>
        <mxCell id="r2siFuNWQ3NmHAQ4Ji6S-27" style="edgeStyle=orthogonalEdgeStyle;rounded=0;orthogonalLoop=1;jettySize=auto;html=1;entryX=0.5;entryY=0;entryDx=0;entryDy=0;exitX=0.5;exitY=0;exitDx=0;exitDy=0;" parent="1" source="r2siFuNWQ3NmHAQ4Ji6S-5" target="r2siFuNWQ3NmHAQ4Ji6S-9" edge="1">
          <mxGeometry relative="1" as="geometry" />
        </mxCell>
        <mxCell id="r2siFuNWQ3NmHAQ4Ji6S-28" style="edgeStyle=orthogonalEdgeStyle;rounded=0;orthogonalLoop=1;jettySize=auto;html=1;entryX=0.5;entryY=0;entryDx=0;entryDy=0;exitX=0.5;exitY=0;exitDx=0;exitDy=0;" parent="1" source="r2siFuNWQ3NmHAQ4Ji6S-5" target="r2siFuNWQ3NmHAQ4Ji6S-8" edge="1">
          <mxGeometry relative="1" as="geometry" />
        </mxCell>
        <mxCell id="r2siFuNWQ3NmHAQ4Ji6S-5" value="&lt;u&gt;St ID&lt;/u&gt;" style="rounded=0;whiteSpace=wrap;html=1;" parent="1" vertex="1">
          <mxGeometry y="200.08000000000004" width="80" height="20" as="geometry" />
        </mxCell>
        <mxCell id="r2siFuNWQ3NmHAQ4Ji6S-6" value="Phone No" style="rounded=0;whiteSpace=wrap;html=1;" parent="1" vertex="1">
          <mxGeometry x="240" y="200.08000000000004" width="80" height="20" as="geometry" />
        </mxCell>
        <mxCell id="r2siFuNWQ3NmHAQ4Ji6S-7" value="F Name" style="rounded=0;whiteSpace=wrap;html=1;" parent="1" vertex="1">
          <mxGeometry x="160" y="200.08000000000004" width="80" height="20" as="geometry" />
        </mxCell>
        <mxCell id="r2siFuNWQ3NmHAQ4Ji6S-8" value="Lic No" style="rounded=0;whiteSpace=wrap;html=1;" parent="1" vertex="1">
          <mxGeometry x="400" y="200.08000000000004" width="80" height="20" as="geometry" />
        </mxCell>
        <mxCell id="r2siFuNWQ3NmHAQ4Ji6S-9" value="St Lic" style="rounded=0;whiteSpace=wrap;html=1;" parent="1" vertex="1">
          <mxGeometry x="320" y="200.08000000000004" width="80" height="20" as="geometry" />
        </mxCell>
        <mxCell id="r2siFuNWQ3NmHAQ4Ji6S-10" value="Date" style="rounded=0;whiteSpace=wrap;html=1;" parent="1" vertex="1">
          <mxGeometry x="560" y="200.08000000000004" width="80" height="20" as="geometry" />
        </mxCell>
        <mxCell id="r2siFuNWQ3NmHAQ4Ji6S-14" style="edgeStyle=orthogonalEdgeStyle;rounded=0;orthogonalLoop=1;jettySize=auto;html=1;entryX=0.5;entryY=0;entryDx=0;entryDy=0;" parent="1" source="r2siFuNWQ3NmHAQ4Ji6S-11" target="r2siFuNWQ3NmHAQ4Ji6S-10" edge="1">
          <mxGeometry relative="1" as="geometry" />
        </mxCell>
        <mxCell id="r2siFuNWQ3NmHAQ4Ji6S-18" style="edgeStyle=orthogonalEdgeStyle;rounded=0;orthogonalLoop=1;jettySize=auto;html=1;entryX=0.5;entryY=0;entryDx=0;entryDy=0;exitX=0.5;exitY=0;exitDx=0;exitDy=0;" parent="1" source="r2siFuNWQ3NmHAQ4Ji6S-11" target="r2siFuNWQ3NmHAQ4Ji6S-13" edge="1">
          <mxGeometry relative="1" as="geometry" />
        </mxCell>
        <mxCell id="r2siFuNWQ3NmHAQ4Ji6S-11" value="&lt;u&gt;Ticket #&lt;/u&gt;" style="rounded=0;whiteSpace=wrap;html=1;" parent="1" vertex="1">
          <mxGeometry x="480" y="200.08000000000004" width="80" height="20" as="geometry" />
        </mxCell>
        <mxCell id="hmiW_719eqXFLRhjZall-85" style="edgeStyle=orthogonalEdgeStyle;rounded=0;orthogonalLoop=1;jettySize=auto;html=1;entryX=0.5;entryY=1;entryDx=0;entryDy=0;exitX=0.5;exitY=1;exitDx=0;exitDy=0;" edge="1" parent="1" source="r2siFuNWQ3NmHAQ4Ji6S-12" target="r2siFuNWQ3NmHAQ4Ji6S-13">
          <mxGeometry relative="1" as="geometry" />
        </mxCell>
        <mxCell id="r2siFuNWQ3NmHAQ4Ji6S-12" value="Fine" style="rounded=0;whiteSpace=wrap;html=1;" parent="1" vertex="1">
          <mxGeometry x="720" y="200.08000000000004" width="80" height="20" as="geometry" />
        </mxCell>
        <mxCell id="r2siFuNWQ3NmHAQ4Ji6S-13" value="Code" style="rounded=0;whiteSpace=wrap;html=1;" parent="1" vertex="1">
          <mxGeometry x="640" y="200.08000000000004" width="80" height="20" as="geometry" />
        </mxCell>
        <mxCell id="r2siFuNWQ3NmHAQ4Ji6S-29" value="L Name" style="rounded=0;whiteSpace=wrap;html=1;" parent="1" vertex="1">
          <mxGeometry x="80" y="480.00000000000006" width="80" height="20" as="geometry" />
        </mxCell>
        <mxCell id="r2siFuNWQ3NmHAQ4Ji6S-30" value="&lt;u&gt;St ID&lt;/u&gt;" style="rounded=0;whiteSpace=wrap;html=1;" parent="1" vertex="1">
          <mxGeometry y="480.00000000000006" width="80" height="20" as="geometry" />
        </mxCell>
        <mxCell id="r2siFuNWQ3NmHAQ4Ji6S-31" value="Phone No" style="rounded=0;whiteSpace=wrap;html=1;" parent="1" vertex="1">
          <mxGeometry x="240" y="480.00000000000006" width="80" height="20" as="geometry" />
        </mxCell>
        <mxCell id="r2siFuNWQ3NmHAQ4Ji6S-32" value="F Name" style="rounded=0;whiteSpace=wrap;html=1;" parent="1" vertex="1">
          <mxGeometry x="160" y="480.00000000000006" width="80" height="20" as="geometry" />
        </mxCell>
        <mxCell id="r2siFuNWQ3NmHAQ4Ji6S-33" value="Lic No" style="rounded=0;whiteSpace=wrap;html=1;" parent="1" vertex="1">
          <mxGeometry x="400" y="480.00000000000006" width="80" height="20" as="geometry" />
        </mxCell>
        <mxCell id="r2siFuNWQ3NmHAQ4Ji6S-34" value="St Lic" style="rounded=0;whiteSpace=wrap;html=1;" parent="1" vertex="1">
          <mxGeometry x="320" y="480.00000000000006" width="80" height="20" as="geometry" />
        </mxCell>
        <mxCell id="r2siFuNWQ3NmHAQ4Ji6S-35" value="Date" style="rounded=0;whiteSpace=wrap;html=1;" parent="1" vertex="1">
          <mxGeometry x="160" y="540" width="80" height="20" as="geometry" />
        </mxCell>
        <mxCell id="r2siFuNWQ3NmHAQ4Ji6S-36" value="&lt;u&gt;Ticket #&lt;/u&gt;" style="rounded=0;whiteSpace=wrap;html=1;" parent="1" vertex="1">
          <mxGeometry y="540" width="80" height="20" as="geometry" />
        </mxCell>
        <mxCell id="r2siFuNWQ3NmHAQ4Ji6S-37" value="Fine" style="rounded=0;whiteSpace=wrap;html=1;" parent="1" vertex="1">
          <mxGeometry x="160" y="600" width="80" height="20" as="geometry" />
        </mxCell>
        <mxCell id="r2siFuNWQ3NmHAQ4Ji6S-38" value="Code" style="rounded=0;whiteSpace=wrap;html=1;" parent="1" vertex="1">
          <mxGeometry x="240" y="540" width="80" height="20" as="geometry" />
        </mxCell>
        <mxCell id="hmiW_719eqXFLRhjZall-1" value="Violation" style="rounded=0;whiteSpace=wrap;html=1;" vertex="1" parent="1">
          <mxGeometry x="80" y="600" width="80" height="20" as="geometry" />
        </mxCell>
        <mxCell id="hmiW_719eqXFLRhjZall-6" style="edgeStyle=orthogonalEdgeStyle;rounded=0;orthogonalLoop=1;jettySize=auto;html=1;entryX=0.5;entryY=1;entryDx=0;entryDy=0;exitX=0.5;exitY=0;exitDx=0;exitDy=0;" edge="1" parent="1" source="hmiW_719eqXFLRhjZall-2" target="r2siFuNWQ3NmHAQ4Ji6S-38">
          <mxGeometry relative="1" as="geometry" />
        </mxCell>
        <mxCell id="hmiW_719eqXFLRhjZall-2" value="&lt;u&gt;Code&lt;/u&gt;" style="rounded=0;whiteSpace=wrap;html=1;" vertex="1" parent="1">
          <mxGeometry y="600" width="80" height="20" as="geometry" />
        </mxCell>
        <mxCell id="hmiW_719eqXFLRhjZall-10" style="edgeStyle=orthogonalEdgeStyle;rounded=0;orthogonalLoop=1;jettySize=auto;html=1;exitX=0.5;exitY=0;exitDx=0;exitDy=0;" edge="1" parent="1" source="hmiW_719eqXFLRhjZall-5">
          <mxGeometry relative="1" as="geometry">
            <mxPoint x="40" y="500.00000000000006" as="targetPoint" />
          </mxGeometry>
        </mxCell>
        <mxCell id="hmiW_719eqXFLRhjZall-5" value="&lt;u&gt;St ID&lt;/u&gt;" style="rounded=0;whiteSpace=wrap;html=1;" vertex="1" parent="1">
          <mxGeometry x="80" y="540" width="80" height="20" as="geometry" />
        </mxCell>
        <mxCell id="hmiW_719eqXFLRhjZall-11" value="L Name" style="rounded=0;whiteSpace=wrap;html=1;" vertex="1" parent="1">
          <mxGeometry x="80" y="300" width="80" height="20" as="geometry" />
        </mxCell>
        <mxCell id="hmiW_719eqXFLRhjZall-12" value="St ID" style="rounded=0;whiteSpace=wrap;html=1;" vertex="1" parent="1">
          <mxGeometry y="300" width="80" height="20" as="geometry" />
        </mxCell>
        <mxCell id="hmiW_719eqXFLRhjZall-13" value="Phone No" style="rounded=0;whiteSpace=wrap;html=1;" vertex="1" parent="1">
          <mxGeometry x="240" y="300" width="80" height="20" as="geometry" />
        </mxCell>
        <mxCell id="hmiW_719eqXFLRhjZall-14" value="F Name" style="rounded=0;whiteSpace=wrap;html=1;" vertex="1" parent="1">
          <mxGeometry x="160" y="300" width="80" height="20" as="geometry" />
        </mxCell>
        <mxCell id="hmiW_719eqXFLRhjZall-15" value="Lic No" style="rounded=0;whiteSpace=wrap;html=1;" vertex="1" parent="1">
          <mxGeometry x="400" y="300" width="80" height="20" as="geometry" />
        </mxCell>
        <mxCell id="hmiW_719eqXFLRhjZall-16" value="St Lic" style="rounded=0;whiteSpace=wrap;html=1;" vertex="1" parent="1">
          <mxGeometry x="320" y="300" width="80" height="20" as="geometry" />
        </mxCell>
        <mxCell id="hmiW_719eqXFLRhjZall-17" value="Date" style="rounded=0;whiteSpace=wrap;html=1;" vertex="1" parent="1">
          <mxGeometry x="560" y="300" width="80" height="20" as="geometry" />
        </mxCell>
        <mxCell id="hmiW_719eqXFLRhjZall-18" value="Ticket #" style="rounded=0;whiteSpace=wrap;html=1;" vertex="1" parent="1">
          <mxGeometry x="480" y="300" width="80" height="20" as="geometry" />
        </mxCell>
        <mxCell id="hmiW_719eqXFLRhjZall-19" value="Fine" style="rounded=0;whiteSpace=wrap;html=1;" vertex="1" parent="1">
          <mxGeometry x="720" y="300" width="80" height="20" as="geometry" />
        </mxCell>
        <mxCell id="hmiW_719eqXFLRhjZall-20" value="Code" style="rounded=0;whiteSpace=wrap;html=1;" vertex="1" parent="1">
          <mxGeometry x="640" y="300" width="80" height="20" as="geometry" />
        </mxCell>
        <mxCell id="hmiW_719eqXFLRhjZall-21" value="Brown" style="rounded=0;whiteSpace=wrap;html=1;" vertex="1" parent="1">
          <mxGeometry x="80" y="320" width="80" height="20" as="geometry" />
        </mxCell>
        <mxCell id="hmiW_719eqXFLRhjZall-22" value="38249" style="rounded=0;whiteSpace=wrap;html=1;" vertex="1" parent="1">
          <mxGeometry y="320" width="80" height="20" as="geometry" />
        </mxCell>
        <mxCell id="hmiW_719eqXFLRhjZall-23" value="&lt;div&gt;111-7804&lt;/div&gt;" style="rounded=0;whiteSpace=wrap;html=1;" vertex="1" parent="1">
          <mxGeometry x="240" y="320" width="80" height="20" as="geometry" />
        </mxCell>
        <mxCell id="hmiW_719eqXFLRhjZall-24" value="Thomas" style="rounded=0;whiteSpace=wrap;html=1;" vertex="1" parent="1">
          <mxGeometry x="160" y="320" width="80" height="20" as="geometry" />
        </mxCell>
        <mxCell id="hmiW_719eqXFLRhjZall-25" value="BRY 123" style="rounded=0;whiteSpace=wrap;html=1;" vertex="1" parent="1">
          <mxGeometry x="400" y="320" width="80" height="20" as="geometry" />
        </mxCell>
        <mxCell id="hmiW_719eqXFLRhjZall-26" value="FL" style="rounded=0;whiteSpace=wrap;html=1;" vertex="1" parent="1">
          <mxGeometry x="320" y="320" width="80" height="20" as="geometry" />
        </mxCell>
        <mxCell id="hmiW_719eqXFLRhjZall-27" value="10/17/2018" style="rounded=0;whiteSpace=wrap;html=1;" vertex="1" parent="1">
          <mxGeometry x="560" y="320" width="80" height="20" as="geometry" />
        </mxCell>
        <mxCell id="hmiW_719eqXFLRhjZall-28" value="15634" style="rounded=0;whiteSpace=wrap;html=1;" vertex="1" parent="1">
          <mxGeometry x="480" y="320" width="80" height="20" as="geometry" />
        </mxCell>
        <mxCell id="hmiW_719eqXFLRhjZall-29" value="$25" style="rounded=0;whiteSpace=wrap;html=1;" vertex="1" parent="1">
          <mxGeometry x="720" y="320" width="80" height="20" as="geometry" />
        </mxCell>
        <mxCell id="hmiW_719eqXFLRhjZall-30" value="2" style="rounded=0;whiteSpace=wrap;html=1;" vertex="1" parent="1">
          <mxGeometry x="640" y="320" width="80" height="20" as="geometry" />
        </mxCell>
        <mxCell id="hmiW_719eqXFLRhjZall-31" value="Brown" style="rounded=0;whiteSpace=wrap;html=1;" vertex="1" parent="1">
          <mxGeometry x="80" y="340" width="80" height="20" as="geometry" />
        </mxCell>
        <mxCell id="hmiW_719eqXFLRhjZall-32" value="" style="rounded=0;whiteSpace=wrap;html=1;" vertex="1" parent="1">
          <mxGeometry y="340" width="80" height="20" as="geometry" />
        </mxCell>
        <mxCell id="hmiW_719eqXFLRhjZall-33" value="&lt;div&gt;111-7804&lt;/div&gt;" style="rounded=0;whiteSpace=wrap;html=1;" vertex="1" parent="1">
          <mxGeometry x="240" y="340" width="80" height="20" as="geometry" />
        </mxCell>
        <mxCell id="hmiW_719eqXFLRhjZall-34" value="Thomas" style="rounded=0;whiteSpace=wrap;html=1;" vertex="1" parent="1">
          <mxGeometry x="160" y="340" width="80" height="20" as="geometry" />
        </mxCell>
        <mxCell id="hmiW_719eqXFLRhjZall-35" value="BRY 123" style="rounded=0;whiteSpace=wrap;html=1;" vertex="1" parent="1">
          <mxGeometry x="400" y="340" width="80" height="20" as="geometry" />
        </mxCell>
        <mxCell id="hmiW_719eqXFLRhjZall-36" value="FL" style="rounded=0;whiteSpace=wrap;html=1;" vertex="1" parent="1">
          <mxGeometry x="320" y="340" width="80" height="20" as="geometry" />
        </mxCell>
        <mxCell id="hmiW_719eqXFLRhjZall-37" value="11/13/2018" style="rounded=0;whiteSpace=wrap;html=1;" vertex="1" parent="1">
          <mxGeometry x="560" y="340" width="80" height="20" as="geometry" />
        </mxCell>
        <mxCell id="hmiW_719eqXFLRhjZall-38" value="16017" style="rounded=0;whiteSpace=wrap;html=1;" vertex="1" parent="1">
          <mxGeometry x="480" y="340" width="80" height="20" as="geometry" />
        </mxCell>
        <mxCell id="hmiW_719eqXFLRhjZall-39" value="$15" style="rounded=0;whiteSpace=wrap;html=1;" vertex="1" parent="1">
          <mxGeometry x="720" y="340" width="80" height="20" as="geometry" />
        </mxCell>
        <mxCell id="hmiW_719eqXFLRhjZall-40" value="1" style="rounded=0;whiteSpace=wrap;html=1;" vertex="1" parent="1">
          <mxGeometry x="640" y="340" width="80" height="20" as="geometry" />
        </mxCell>
        <mxCell id="hmiW_719eqXFLRhjZall-41" value="Green" style="rounded=0;whiteSpace=wrap;html=1;" vertex="1" parent="1">
          <mxGeometry x="80" y="360" width="80" height="20" as="geometry" />
        </mxCell>
        <mxCell id="hmiW_719eqXFLRhjZall-42" value="82453" style="rounded=0;whiteSpace=wrap;html=1;" vertex="1" parent="1">
          <mxGeometry y="360" width="80" height="20" as="geometry" />
        </mxCell>
        <mxCell id="hmiW_719eqXFLRhjZall-43" value="391-1689" style="rounded=0;whiteSpace=wrap;html=1;" vertex="1" parent="1">
          <mxGeometry x="240" y="360" width="80" height="20" as="geometry" />
        </mxCell>
        <mxCell id="hmiW_719eqXFLRhjZall-44" value="Sally" style="rounded=0;whiteSpace=wrap;html=1;" vertex="1" parent="1">
          <mxGeometry x="160" y="360" width="80" height="20" as="geometry" />
        </mxCell>
        <mxCell id="hmiW_719eqXFLRhjZall-45" value="TRE 141" style="rounded=0;whiteSpace=wrap;html=1;" vertex="1" parent="1">
          <mxGeometry x="400" y="360" width="80" height="20" as="geometry" />
        </mxCell>
        <mxCell id="hmiW_719eqXFLRhjZall-46" value="AL" style="rounded=0;whiteSpace=wrap;html=1;" vertex="1" parent="1">
          <mxGeometry x="320" y="360" width="80" height="20" as="geometry" />
        </mxCell>
        <mxCell id="hmiW_719eqXFLRhjZall-47" value="10/05/2018" style="rounded=0;whiteSpace=wrap;html=1;" vertex="1" parent="1">
          <mxGeometry x="560" y="360" width="80" height="20" as="geometry" />
        </mxCell>
        <mxCell id="hmiW_719eqXFLRhjZall-48" value="14987" style="rounded=0;whiteSpace=wrap;html=1;" vertex="1" parent="1">
          <mxGeometry x="480" y="360" width="80" height="20" as="geometry" />
        </mxCell>
        <mxCell id="hmiW_719eqXFLRhjZall-49" value="$100" style="rounded=0;whiteSpace=wrap;html=1;" vertex="1" parent="1">
          <mxGeometry x="720" y="360" width="80" height="20" as="geometry" />
        </mxCell>
        <mxCell id="hmiW_719eqXFLRhjZall-50" value="3" style="rounded=0;whiteSpace=wrap;html=1;" vertex="1" parent="1">
          <mxGeometry x="640" y="360" width="80" height="20" as="geometry" />
        </mxCell>
        <mxCell id="hmiW_719eqXFLRhjZall-51" value="Green" style="rounded=0;whiteSpace=wrap;html=1;" vertex="1" parent="1">
          <mxGeometry x="80" y="380" width="80" height="20" as="geometry" />
        </mxCell>
        <mxCell id="hmiW_719eqXFLRhjZall-52" value="82453" style="rounded=0;whiteSpace=wrap;html=1;" vertex="1" parent="1">
          <mxGeometry y="380" width="80" height="20" as="geometry" />
        </mxCell>
        <mxCell id="hmiW_719eqXFLRhjZall-53" value="391-1689" style="rounded=0;whiteSpace=wrap;html=1;" vertex="1" parent="1">
          <mxGeometry x="240" y="380" width="80" height="20" as="geometry" />
        </mxCell>
        <mxCell id="hmiW_719eqXFLRhjZall-54" value="Sally" style="rounded=0;whiteSpace=wrap;html=1;" vertex="1" parent="1">
          <mxGeometry x="160" y="380" width="80" height="20" as="geometry" />
        </mxCell>
        <mxCell id="hmiW_719eqXFLRhjZall-55" value="TRE 141" style="rounded=0;whiteSpace=wrap;html=1;" vertex="1" parent="1">
          <mxGeometry x="400" y="380" width="80" height="20" as="geometry" />
        </mxCell>
        <mxCell id="hmiW_719eqXFLRhjZall-56" value="AL" style="rounded=0;whiteSpace=wrap;html=1;" vertex="1" parent="1">
          <mxGeometry x="320" y="380" width="80" height="20" as="geometry" />
        </mxCell>
        <mxCell id="hmiW_719eqXFLRhjZall-57" value="11/18/2018" style="rounded=0;whiteSpace=wrap;html=1;" vertex="1" parent="1">
          <mxGeometry x="560" y="380" width="80" height="20" as="geometry" />
        </mxCell>
        <mxCell id="hmiW_719eqXFLRhjZall-58" value="16293" style="rounded=0;whiteSpace=wrap;html=1;" vertex="1" parent="1">
          <mxGeometry x="480" y="380" width="80" height="20" as="geometry" />
        </mxCell>
        <mxCell id="hmiW_719eqXFLRhjZall-59" value="$15" style="rounded=0;whiteSpace=wrap;html=1;" vertex="1" parent="1">
          <mxGeometry x="720" y="380" width="80" height="20" as="geometry" />
        </mxCell>
        <mxCell id="hmiW_719eqXFLRhjZall-60" value="1" style="rounded=0;whiteSpace=wrap;html=1;" vertex="1" parent="1">
          <mxGeometry x="640" y="380" width="80" height="20" as="geometry" />
        </mxCell>
        <mxCell id="hmiW_719eqXFLRhjZall-61" value="Green" style="rounded=0;whiteSpace=wrap;html=1;" vertex="1" parent="1">
          <mxGeometry x="80" y="400" width="80" height="20" as="geometry" />
        </mxCell>
        <mxCell id="hmiW_719eqXFLRhjZall-62" value="82453" style="rounded=0;whiteSpace=wrap;html=1;" vertex="1" parent="1">
          <mxGeometry y="400" width="80" height="20" as="geometry" />
        </mxCell>
        <mxCell id="hmiW_719eqXFLRhjZall-63" value="391-1689" style="rounded=0;whiteSpace=wrap;html=1;" vertex="1" parent="1">
          <mxGeometry x="240" y="400" width="80" height="20" as="geometry" />
        </mxCell>
        <mxCell id="hmiW_719eqXFLRhjZall-64" value="Sally" style="rounded=0;whiteSpace=wrap;html=1;" vertex="1" parent="1">
          <mxGeometry x="160" y="400" width="80" height="20" as="geometry" />
        </mxCell>
        <mxCell id="hmiW_719eqXFLRhjZall-65" value="TRE 141" style="rounded=0;whiteSpace=wrap;html=1;" vertex="1" parent="1">
          <mxGeometry x="400" y="400" width="80" height="20" as="geometry" />
        </mxCell>
        <mxCell id="hmiW_719eqXFLRhjZall-66" value="AL" style="rounded=0;whiteSpace=wrap;html=1;" vertex="1" parent="1">
          <mxGeometry x="320" y="400" width="80" height="20" as="geometry" />
        </mxCell>
        <mxCell id="hmiW_719eqXFLRhjZall-67" value="12/13/2018" style="rounded=0;whiteSpace=wrap;html=1;" vertex="1" parent="1">
          <mxGeometry x="560" y="400" width="80" height="20" as="geometry" />
        </mxCell>
        <mxCell id="hmiW_719eqXFLRhjZall-68" value="17892" style="rounded=0;whiteSpace=wrap;html=1;" vertex="1" parent="1">
          <mxGeometry x="480" y="400" width="80" height="20" as="geometry" />
        </mxCell>
        <mxCell id="hmiW_719eqXFLRhjZall-69" value="$25" style="rounded=0;whiteSpace=wrap;html=1;" vertex="1" parent="1">
          <mxGeometry x="720" y="400" width="80" height="20" as="geometry" />
        </mxCell>
        <mxCell id="hmiW_719eqXFLRhjZall-70" value="2" style="rounded=0;whiteSpace=wrap;html=1;" vertex="1" parent="1">
          <mxGeometry x="640" y="400" width="80" height="20" as="geometry" />
        </mxCell>
        <mxCell id="hmiW_719eqXFLRhjZall-71" value="PARKING TICKET TABLE" style="rounded=0;whiteSpace=wrap;html=1;" vertex="1" parent="1">
          <mxGeometry y="280" width="960" height="20" as="geometry" />
        </mxCell>
        <mxCell id="hmiW_719eqXFLRhjZall-72" value="38249" style="rounded=0;whiteSpace=wrap;html=1;" vertex="1" parent="1">
          <mxGeometry y="340" width="80" height="20" as="geometry" />
        </mxCell>
        <mxCell id="hmiW_719eqXFLRhjZall-73" value="Violation" style="rounded=0;whiteSpace=wrap;html=1;" vertex="1" parent="1">
          <mxGeometry x="800" y="300" width="160" height="20" as="geometry" />
        </mxCell>
        <mxCell id="hmiW_719eqXFLRhjZall-78" value="No parking permit" style="rounded=0;whiteSpace=wrap;html=1;" vertex="1" parent="1">
          <mxGeometry x="800" y="320" width="160" height="20" as="geometry" />
        </mxCell>
        <mxCell id="hmiW_719eqXFLRhjZall-79" value="Expired parking meter" style="rounded=0;whiteSpace=wrap;html=1;" vertex="1" parent="1">
          <mxGeometry x="800" y="340" width="160" height="20" as="geometry" />
        </mxCell>
        <mxCell id="hmiW_719eqXFLRhjZall-80" value="Handicap Violation" style="rounded=0;whiteSpace=wrap;html=1;" vertex="1" parent="1">
          <mxGeometry x="800" y="360" width="160" height="20" as="geometry" />
        </mxCell>
        <mxCell id="hmiW_719eqXFLRhjZall-81" value="Expired parking meter" style="rounded=0;whiteSpace=wrap;html=1;" vertex="1" parent="1">
          <mxGeometry x="800" y="380" width="160" height="20" as="geometry" />
        </mxCell>
        <mxCell id="hmiW_719eqXFLRhjZall-82" value="No parking permit" style="rounded=0;whiteSpace=wrap;html=1;" vertex="1" parent="1">
          <mxGeometry x="800" y="400" width="160" height="20" as="geometry" />
        </mxCell>
      </root>
    </mxGraphModel>
  </diagram>
</mxfile>
